<svg width="22" height="14" viewBox="0 0 22 14" fill="none" xmlns="http://www.w3.org/2000/svg">
<path fill-rule="evenodd" clip-rule="evenodd" d="M18.9341 8.69068C19.6639 9.40318 20.4341 10.0735 21.0887 10.8579C21.3778 11.2064 21.6515 11.5661 21.8609 11.9706C22.1577 12.5456 21.8889 13.1784 21.3733 13.2127L18.1683 13.2113C17.3417 13.2798 16.6822 12.9471 16.1278 12.3819C15.684 11.9299 15.2731 11.4489 14.8464 10.9816C14.6715 10.7906 14.4884 10.6109 14.2697 10.4689C13.8321 10.1849 13.4523 10.2719 13.2023 10.7282C12.9477 11.1923 12.8899 11.7063 12.8649 12.2235C12.8306 12.9782 12.6024 13.1766 11.8443 13.2112C10.2242 13.2876 8.6866 13.0425 7.25822 12.2252C5.99891 11.5047 5.02236 10.4875 4.17239 9.33595C2.51748 7.09367 1.25014 4.62976 0.111107 2.09683C-0.14528 1.52616 0.0422219 1.21982 0.671878 1.20898C1.71745 1.18867 2.76288 1.19011 3.80968 1.20753C4.23463 1.21375 4.51595 1.45749 4.68003 1.85895C5.24572 3.24988 5.9379 4.57324 6.80674 5.79988C7.03812 6.12645 7.27405 6.45302 7.61002 6.68288C7.9817 6.93739 8.26468 6.85304 8.43954 6.439C8.55049 6.17647 8.59906 5.8937 8.62407 5.61252C8.70691 4.64516 8.71782 3.67946 8.57254 2.7155C8.48334 2.11389 8.14448 1.72443 7.54417 1.61058C7.23783 1.55254 7.28344 1.43855 7.43177 1.2637C7.68938 0.962133 7.93168 0.774414 8.41467 0.774414H12.0368C12.6071 0.886958 12.7337 1.14313 12.8118 1.71691L12.8149 5.74039C12.8087 5.96251 12.9258 6.62166 13.3259 6.76868C13.6461 6.87335 13.8572 6.61718 14.0493 6.41414C14.9166 5.49369 15.5355 4.4059 16.0885 3.27952C16.3339 2.78424 16.5449 2.26987 16.7494 1.75594C16.9009 1.37458 17.1386 1.18693 17.5682 1.19524L21.0543 1.19835C21.1577 1.19835 21.2623 1.19987 21.3624 1.217C21.9498 1.31711 22.1108 1.56981 21.9294 2.14345C21.6435 3.04344 21.0873 3.79345 20.5434 4.54693C19.9621 5.35136 19.3403 6.12826 18.7638 6.93746C18.2341 7.67641 18.2761 8.04889 18.9341 8.69068Z" fill="#5181B8"/>
</svg>
